<svg width="17" height="18" viewBox="0 0 17 18" fill="none" xmlns="http://www.w3.org/2000/svg">
<path fill-rule="evenodd" clip-rule="evenodd" d="M12.3085 0.686432H4.69128C2.10451 0.686432 0 2.79104 0 5.37782V12.995C0 15.5819 2.10451 17.6864 4.69128 17.6864H12.3085C14.8955 17.6864 17 15.5818 17 12.995V5.37782C17.0001 2.79104 14.8955 0.686432 12.3085 0.686432ZM8.49998 4.80597C6.08455 4.80597 4.11951 6.77101 4.11951 9.18644C4.11951 11.6018 6.08455 13.5667 8.49998 13.5667C10.9154 13.5667 12.8804 11.6018 12.8804 9.18644C12.8804 6.77101 10.9154 4.80597 8.49998 4.80597ZM8.49998 12.0583C6.91634 12.0583 5.62783 10.77 5.62783 9.18634C5.62783 7.6026 6.91624 6.31419 8.49998 6.31419C10.0837 6.31419 11.3721 7.6026 11.3721 9.18634C11.3721 10.77 10.0836 12.0583 8.49998 12.0583ZM12.2829 3.8508C12.4882 3.64466 12.7736 3.52701 13.0642 3.52701C13.3558 3.52701 13.6414 3.64466 13.8465 3.8508C14.0527 4.05593 14.1703 4.34151 14.1703 4.63311C14.1703 4.92372 14.0527 5.20929 13.8465 5.41543C13.6404 5.62056 13.3558 5.73922 13.0642 5.73922C12.7736 5.73922 12.4881 5.62056 12.2829 5.41543C12.0768 5.20929 11.9581 4.92382 11.9581 4.63311C11.9581 4.34151 12.0767 4.05593 12.2829 3.8508Z" fill="#52BFFF"/>
</svg>
